<svg xmlns="http://www.w3.org/2000/svg" viewBox="0 0 1600 900" role="img" aria-labelledby="title desc">
  <title id="title">World map illustration</title>
  <desc id="desc">Stylised world map showing highlighted regions in vibrant pink.</desc>
  <defs>
    <linearGradient id="bg" x1="0%" y1="0%" x2="100%" y2="100%">
      <stop offset="0%" stop-color="#fff5f7" />
      <stop offset="100%" stop-color="#fef9ee" />
    </linearGradient>
  </defs>
  <rect width="1600" height="900" fill="url(#bg)" />
  <g fill="#e2e8f0" opacity="0.6">
    <path d="M182 344l46-60 90-26 58 30 18 56-30 40 10 34-32 12-58 18-48-12-26-52-28-40z" />
    <path d="M382 306l62-46 128-20 72 54 40 72-44 34-78 18-74-22-52-44-54-46z" />
    <path d="M646 276l104-60 116 12 88 52 44 70-24 52-74 26-94-26-82-50-56-76  -22z" />
    <path d="M982 306l98-62 96-12 112 44 62 72-26 70-74 26-114-22-74-38-80-78z" />
    <path d="M1304 322l74-54 122 14 58 44-2 58-60 72-108 10-78-38-6-74z" />
    <path d="M564 492l110-64 120 32 86 70-20 58-84 26-96-12-76-32-40-78z" />
    <path d="M918 522l118-64 122 26 90 70-22 70-84 32-112-20-76-42-36-72z" />
    <path d="M1254 500l92-64 104 18 74 52 10 70-56 60-108 22-82-34-34-70z" />
    <path d="M690 632l36-42 66 10 60 40 6 58-42 36-74 4-50-34-2-72z" />
    <path d="M456 562l54-36 68 22 32 58-16 58-64 18-70-30-20-48 16-42z" />
  </g>
  <g fill="#f43f5e">
    <path d="M288 330l24-38 52-10 44 18 8 34-28 28 6 28-30 10-48-12-28-30z" />
    <path d="M530 300l40-28 88-12 46 34 26 54-28 28-56 18-64-20-46-42z" />
    <path d="M760 292l74-40 82 10 60 40 30 52-14 40-60 20-72-20-56-34-44-68z" />
    <path d="M1032 320l78-44 88-12 80 30 44 58-18 52-64 24-96-18-62-32-50-58z" />
    <path d="M1320 340l60-40 96 10 46 34-4 46-46 54-86 8-60-28-6-52z" />
    <path d="M590 508l74-42 88 26 60 46-16 44-62 20-78-10-50-26-16-58z" />
    <path d="M942 532l88-46 96 20 70 54-18 52-68 26-90-16-56-30-22-60z" />
    <path d="M1284 512l68-48 78 14 56 38 6 52-40 48-84 16-62-26-22-50z" />
    <path d="M728 642l24-28 46 6 40 24 4 40-28 24-50 2-34-22-2-46z" />
    <path d="M492 580l36-24 52 16 24 44-12 40-46 12-54-22-12-34 12-32z" />
  </g>
  <g fill="#0f172a" opacity="0.6">
    <path d="M180 286l24-16 20 10-12 14 12 16-24 4-20-16 0-12z" />
    <path d="M518 260l16-10 20 8-10 12 8 16-22 2-18-12 6-16z" />
    <path d="M812 252l18-10 18 10-6 14 12 12-20 4-16-10-6-12z" />
    <path d="M1098 268l18-12 22 8-8 16 10 18-24 4-18-14 0-20z" />
    <path d="M1416 292l14-10 22 6-10 18 6 16-20 2-16-14 4-18z" />
    <path d="M928 438l14-10 18 10-6 16 10 12-20 2-14-12-2-18z" />
    <path d="M1252 450l14-8 18 8-6 12 8 10-18 4-12-12-4-14z" />
  </g>
  <ellipse cx="800" cy="772" rx="460" ry="46" fill="#f8d9e0" opacity="0.35" />
</svg>

